{"title":"Blitz 2011 CAM XViD - IMAGiNE","uid":6501944,"size":751513460,"categoryP":"video","categoryS":"movies","magnet":"?xt=urn:btih:ec9c7a4805d6b4899f653e08ca5093ece5bb79d5&amp;dn=Blitz+2011+CAM+XViD+-+IMAGiNE&amp;tr=udp%3A%2F%2Ftracker.openbittorrent.com%3A80&amp;tr=udp%3A%2F%2Fopen.demonii.com%3A1337&amp;tr=udp%3A%2F%2Ftracker.coppersurfer.tk%3A6969&amp;tr=udp%3A%2F%2Fexodus.desync.com%3A6969","seeders":0,"leechers":1,"uploader":"TorrentXXLS","files":2,"time":1309278532,"description":"Blitz 2011 CAM XViD - IMAGiNE\n\n+++++++++++++++++++++++++++++\n\n\nRipper ...........: IMAGiNE \nIMDB Rating.......:7.2/10\nVideo Codec.......: XVID\n Release Date......:26/06/11\nAudio Codec.......:MP3 \nTheatre Date......:20/05/11\nAudio Bitrate.....:128\n Runtime.......:1h 32mn\nSubtitles.........:NIL\n Language..........:ENGLISH\nResolution...... 640 x 240\n IMDb URL..........:http://www.imdb.com/title/tt1297919/\n\nDETAILS:\n\nVideo\n\nID : 0\nFormat : MPEG-4 Visual\nFormat profile : Advanced Simple@L5\nFormat settings, BVOP : 2\nFormat settings, QPel : No\nFormat settings, GMC : No warppoints\nFormat settings, Matrix : Default (MPEG)\nMuxing mode : Packed bitstream\nCodec ID : XVID\nCodec ID/Hint : XviD\nDuration : 1h 32mn\nBit rate : 952 Kbps\nWidth : 640 pixels\nHeight : 240 pixels\nDisplay aspect ratio : 2.667\nFrame rate : 25.000 fps\nColor space : YUV\nChroma subsampling : 4:2:0\nBit depth : 8 bits\nScan type : Progressive\nCompression mode : Lossy\nBits/(Pixel*Frame) : 0.248\nStream size : 626 MiB (99%)\nWriting library : XviD 61\n\n\nAudio\n\nFormat : MPEG Audio\nFormat version : Version 1\nFormat profile : Layer 3\nMode : Joint stereo\nMode extension : MS Stereo\nDuration : 1h 32mn\nBit rate mode : Constant\nBit rate : 128 Kbps\nChannel(s) : 2 channels\nSampling rate : 44.1 KHz\nCompression mode : Lossy\nStream size : 84.2 MiB (100%)\nWriting library : LAME3.98r\nEncoding settings : -m j -V 4 -q 2 -lowpass 17 -b 128\n\n","torrent":{"xt":"urn:btih:ec9c7a4805d6b4899f653e08ca5093ece5bb79d5","amp;dn":"Blitz+2011+CAM+XViD+-+IMAGiNE","amp;tr":["udp%3A%2F%2Ftracker.openbittorrent.com%3A80","udp%3A%2F%2Fopen.demonii.com%3A1337","udp%3A%2F%2Ftracker.coppersurfer.tk%3A6969","udp%3A%2F%2Fexodus.desync.com%3A6969"],"infoHash":"ec9c7a4805d6b4899f653e08ca5093ece5bb79d5","infoHashBuffer":{"type":"Buffer","data":[236,156,122,72,5,214,180,137,159,101,62,8,202,80,147,236,229,187,121,213]},"announce":[],"urlList":[]}}